<?xml version="1.0" standalone="no"?>
<!DOCTYPE svg PUBLIC "-//W3C//DTD SVG 20010904//EN"
 "http://www.w3.org/TR/2001/REC-SVG-20010904/DTD/svg10.dtd">
<svg version="1.0" xmlns="http://www.w3.org/2000/svg"
 width="262.000000pt" height="220.000000pt" viewBox="0 0 262.000000 220.000000"
 preserveAspectRatio="xMidYMid meet">
<metadata>
Created by potrace 1.10, written by Peter Selinger 2001-2011
</metadata>
<g transform="translate(0.000000,220.000000) scale(0.100000,-0.100000)"
fill="#000000" stroke="none">
<path d="M1904 1922 l-80 -57 179 -257 180 -256 84 60 84 60 -17 27 c-10 14
-42 60 -73 101 -48 65 -56 72 -59 52 -2 -16 13 -48 42 -93 25 -38 46 -71 46
-74 0 -9 -82 -65 -95 -65 -14 0 -305 410 -305 429 0 11 76 71 91 71 4 0 27
-27 51 -59 61 -83 140 -136 131 -87 -4 18 6 30 49 59 29 20 56 37 60 37 8 0
68 -81 68 -92 0 -4 -24 -26 -54 -48 -41 -31 -60 -40 -81 -36 -15 3 -24 2 -20
-2 3 -4 11 -7 15 -7 5 0 15 -9 23 -19 13 -18 17 -17 91 34 42 29 79 57 82 61
2 5 -19 41 -47 81 -70 97 -66 94 -86 77 -10 -9 -48 -36 -84 -62 l-66 -46 -59
84 c-31 47 -60 85 -63 84 -3 0 -42 -26 -87 -57z"/>
<path d="M1605 1839 c-38 -28 -76 -54 -84 -59 -11 -6 5 -36 76 -136 50 -71 90
-130 90 -130 -14 -12 -849 -594 -852 -594 -2 0 -40 53 -86 118 -45 64 -85 121
-89 125 -9 11 -165 -101 -164 -116 1 -7 106 -162 234 -344 l232 -333 81 57
c45 31 84 58 86 59 2 2 -37 61 -87 131 -49 70 -89 129 -89 129 28 21 849 594
852 594 2 0 40 -53 86 -117 45 -65 85 -122 89 -126 11 -12 172 104 166 119 -5
14 -443 642 -460 661 -8 9 -28 -1 -81 -38z m285 -319 c110 -157 199 -291 197
-299 -3 -18 -83 -75 -95 -67 -6 3 -36 43 -68 89 -76 110 -93 127 -124 127 -18
0 -148 -85 -420 -276 -400 -279 -434 -305 -451 -336 -12 -21 8 -59 87 -173
l56 -80 -38 -33 c-66 -57 -41 -82 -337 344 -81 117 -147 216 -147 222 0 11 78
72 91 72 5 0 29 -30 55 -67 89 -127 113 -153 142 -153 19 0 147 84 427 280
367 257 455 324 455 349 0 6 -34 60 -75 122 -41 61 -75 115 -75 119 0 4 21 22
47 39 38 24 50 28 60 18 7 -7 103 -141 213 -297z"/>
<path d="M372 847 l-83 -59 17 -27 c10 -14 42 -60 73 -101 48 -64 56 -72 59
-52 2 15 -13 48 -42 92 -25 37 -46 71 -46 74 0 9 82 66 95 66 13 0 305 -410
305 -429 0 -11 -77 -71 -91 -71 -4 0 -27 27 -51 59 -61 83 -140 136 -131 87 4
-18 -7 -30 -52 -60 -63 -41 -68 -40 -106 20 -24 40 -20 48 48 95 29 21 50 28
69 25 15 -3 23 -2 19 2 -3 4 -11 7 -15 7 -5 0 -15 9 -23 19 -13 18 -17 17 -91
-34 -42 -29 -79 -57 -82 -61 -2 -5 19 -41 47 -81 70 -97 66 -94 86 -77 10 9
48 36 84 62 l66 46 59 -84 c31 -47 59 -85 61 -85 2 0 41 26 86 58 l84 57 -178
253 c-97 139 -178 254 -180 256 -2 2 -41 -24 -87 -57z"/>
</g>
</svg>
